<svg width="48" height="48" viewBox="0 0 48 48" fill="none" xmlns="http://www.w3.org/2000/svg">
<circle cx="24" cy="24" r="24" fill="#27AE60"/>
<g clip-path="url(#clip0_3_667)">
<path d="M23.9999 20.7908C22.2302 20.7908 20.7905 22.2305 20.7905 24.0001C20.7905 25.7698 22.2303 27.2095 23.9999 27.2095C25.7695 27.2095 27.2093 25.7698 27.2093 24.0001C27.2093 22.2305 25.7696 20.7908 23.9999 20.7908ZM23.9999 25.6861C23.0702 25.6861 22.314 24.9297 22.314 24.0001C22.314 23.0705 23.0703 22.3142 23.9999 22.3142C24.9295 22.3142 25.6858 23.0705 25.6858 24.0001C25.6858 24.9297 24.9295 25.6861 23.9999 25.6861Z" fill="#161722"/>
<path d="M18.1956 18.1956L17.1183 17.1184C15.2775 18.9593 14.2637 21.4033 14.2637 24.0002C14.2637 26.597 15.2775 29.041 17.1184 30.8819L18.1956 29.8047C16.6424 28.2515 15.7871 26.1901 15.7871 24.0002C15.7871 21.8102 16.6424 19.7488 18.1956 18.1956V18.1956Z" fill="#161722"/>
<path d="M15.8889 15.8889L14.8117 14.8118C12.3537 17.2697 11 20.5329 11 24.0001C11 27.4673 12.3537 30.7304 14.8117 33.1884L15.8889 32.1112C13.7187 29.9409 12.5234 27.0604 12.5234 24.0001C12.5234 20.9398 13.7187 18.0592 15.8889 15.8889V15.8889Z" fill="#161722"/>
<path d="M33.1883 14.8118L32.1111 15.889C34.2813 18.0592 35.4766 20.9398 35.4766 24.0001C35.4766 27.0604 34.2813 29.9409 32.1111 32.1112L33.1884 33.1884C35.6463 30.7304 37 27.4673 37 24.0001C37 20.5329 35.6463 17.2697 33.1883 14.8118V14.8118Z" fill="#161722"/>
<path d="M30.8817 17.1184L29.8045 18.1956C31.3576 19.7488 32.213 21.8102 32.213 24.0002C32.213 26.1901 31.3576 28.2515 29.8044 29.8047L30.8817 30.8819C32.7225 29.041 33.7364 26.597 33.7364 24.0002C33.7364 21.4033 32.7226 18.9593 30.8817 17.1184V17.1184Z" fill="#161722"/>
<path d="M28.5753 19.4248L27.4981 20.502C28.4341 21.4381 28.9496 22.6803 28.9496 23.9999C28.9496 25.3195 28.4341 26.5618 27.498 27.4979L28.5753 28.5751C29.7991 27.3513 30.4731 25.7265 30.4731 23.9999C30.4731 22.2734 29.7991 20.6486 28.5753 19.4248Z" fill="#161722"/>
<path d="M20.5024 20.502L19.4251 19.4248C18.2013 20.6486 17.5273 22.2734 17.5273 23.9999C17.5273 25.7265 18.2013 27.3513 19.4251 28.5751L20.5024 27.4979C19.5663 26.5618 19.0508 25.3195 19.0508 23.9999C19.0508 22.6803 19.5663 21.4381 20.5024 20.502V20.502Z" fill="#161722"/>
</g>
<defs>
<clipPath id="clip0_3_667">
<rect width="26" height="26" fill="white" transform="translate(11 11)"/>
</clipPath>
</defs>
</svg>

